<svg xmlns="http://www.w3.org/2000/svg" width="120" height="120" fill="none"><g filter="url(#a)"><path fill="url(#b)" d="M78.32 97.937c-6.088.192-13.406 0-18.588-.064-5.116.192-12.5.256-18.587.064 6.023-3.398 8.16-9.745 8.42-13.913H69.77c.453 4.103 2.59 10.515 8.549 13.913Z"/><path stroke="#CDCDCD" d="M59.739 97.373h-.025c-4.656.175-11.195.244-16.918.11 4.948-3.5 6.871-9.041 7.23-12.959H69.33c.517 3.849 2.446 9.442 7.35 12.955-4.43.091-9.327.012-13.512-.055-1.212-.02-2.365-.038-3.428-.051Z"/></g><g filter="url(#c)"><path fill="url(#d)" d="M97.882 30.938v52.38c0 1.347-1.036 2.309-2.202 2.309H24.179c-1.231 0-2.202-1.026-2.202-2.308V30.938c0-1.218 1.036-2.308 2.202-2.308H95.55c1.36.064 2.332 1.09 2.332 2.308Z"/><path stroke="#CDCDCD" d="M97.382 30.938v52.38c0 1.076-.817 1.809-1.702 1.809H24.179c-.932 0-1.702-.778-1.702-1.808V30.938c0-.965.834-1.808 1.702-1.808h71.359c1.105.057 1.844.877 1.844 1.808Z"/></g><path fill="#989FB0" d="M97.882 30.938V76.01H21.977V30.938c0-1.218 1.036-2.308 2.202-2.308H95.55c1.36.064 2.332 1.09 2.332 2.308Z"/><path fill="url(#e)" d="M97.628 30.597v45.524H21.902V30.597c0-1.24 1.06-2.303 2.21-2.303H95.33c1.325 0 2.297 1.063 2.297 2.303Z"/><g filter="url(#f)"><path fill="url(#g)" d="M94.882 31.616H24.559v41.848H94.97V31.616h-.089Z"/></g><path fill="url(#h)" d="M32.273 48.761c7.511 0 13.6-6.028 13.6-13.464 0-7.435-6.089-13.463-13.6-13.463-7.512 0-13.601 6.027-13.601 13.463 0 7.436 6.09 13.464 13.6 13.464Z"/><path fill="#fff" d="M40.182 34.638c0-.77-.648-.77-1.296-.834-.583-.064-.647-.577-.906-1.09-.454-.961 1.295-1.41.388-2.308-.906-.897-1.36-1.602-2.072-1.09-.454.321-.777.706-1.295.45-.519-.257-1.037-.321-1.101-.898-.195-1.475-.324-1.283-2.332-1.283-1.23 0-.389 1.54-1.36 1.924-.583.192-.972.513-1.425.192-1.23-.898-1.101-.705-2.59.705-.519.513-.13.962.323 1.54.324.448 0 .833-.194 1.41-.324.961-1.943.128-1.943 1.346 0 .577 0 1.154.065 1.731.259.705.842.385 1.425.641h.129c.13.064.26.257.324.385a.67.67 0 0 0 .13.32c.194.45.388.706.064 1.09-.842 1.154-.712 1.09.713 2.565.841.898 1.424-.834 2.331-.385.389.193.907.32 1.036.706.13.256.065.705.26 1.025.258.577 1.165.385 2.137.385 1.23 0 .388-1.539 1.36-1.923 1.166-.385.907-.513 1.878.192.712.513 1.295-.32 2.072-1.09.907-.898-.841-1.41-.388-2.308.065-.192.194-.385.259-.577.194-.513.648-.513 1.23-.577.972-.128.778-1.026.778-2.244ZM32.28 38.1c-1.49 0-2.72-1.218-2.72-2.693 0-1.474 1.23-2.692 2.72-2.692 1.49 0 2.72 1.218 2.72 2.692.065 1.475-1.165 2.693-2.72 2.693Z"/><path fill="url(#i)" d="M42.117 54.211H31.3c-1.814 0-3.238 1.41-3.238 3.206v10.13c0 1.795 1.424 3.206 3.238 3.206h10.75c1.814 0 3.24-1.41 3.24-3.206v-10.13c.064-1.731-1.426-3.206-3.174-3.206Z"/><path fill="url(#j)" d="M64.915 48.505h-10.75c-1.814 0-3.24 1.41-3.24 3.206v15.836c0 1.795 1.426 3.206 3.24 3.206h10.75c1.814 0 3.238-1.411 3.238-3.206V51.71c0-1.796-1.49-3.206-3.238-3.206Z"/><path fill="url(#k)" d="M87.778 21h-10.75c-1.814 0-3.239 1.41-3.239 3.206v43.34c0 1.796 1.425 3.206 3.238 3.206h10.751c1.814 0 3.239-1.41 3.239-3.205V24.206c0-1.796-1.49-3.206-3.239-3.206Z"/><defs><linearGradient id="b" x1="59.732" x2="59.732" y1="84.024" y2="98.053" gradientUnits="userSpaceOnUse"><stop stop-color="#FEFEFE"/><stop offset="1" stop-color="#F3F3F3"/></linearGradient><linearGradient id="d" x1="59.929" x2="59.929" y1="28.63" y2="85.627" gradientUnits="userSpaceOnUse"><stop stop-color="#FEFEFE"/><stop offset="1" stop-color="#F3F3F3"/></linearGradient><linearGradient id="e" x1="61.671" x2="61.583" y1="74.373" y2="28.211" gradientUnits="userSpaceOnUse"><stop stop-color="#5A6060"/><stop offset=".7" stop-color="#3D4041"/></linearGradient><linearGradient id="g" x1="59.764" x2="59.764" y1="31.616" y2="73.464" gradientUnits="userSpaceOnUse"><stop stop-color="#FEFEFE"/><stop offset="1" stop-color="#F3F3F3"/></linearGradient><linearGradient id="h" x1="32.273" x2="32.273" y1="21.834" y2="48.761" gradientUnits="userSpaceOnUse"><stop stop-color="#939DA5"/><stop offset="1" stop-color="#676F76"/></linearGradient><linearGradient id="i" x1="36.677" x2="36.677" y1="54.211" y2="70.753" gradientUnits="userSpaceOnUse"><stop stop-color="#939DA5"/><stop offset="1" stop-color="#676F76"/></linearGradient><linearGradient id="j" x1="59.54" x2="59.54" y1="48.505" y2="70.752" gradientUnits="userSpaceOnUse"><stop stop-color="#939DA5"/><stop offset="1" stop-color="#676F76"/></linearGradient><linearGradient id="k" x1="82.403" x2="82.403" y1="21" y2="70.752" gradientUnits="userSpaceOnUse"><stop stop-color="#939DA5"/><stop offset="1" stop-color="#676F76"/></linearGradient><filter id="a" width="39.176" height="18.584" x="40.145" y="81.746" color-interpolation-filters="sRGB" filterUnits="userSpaceOnUse"><feFlood flood-opacity="0" result="BackgroundImageFix"/><feColorMatrix in="SourceAlpha" result="hardAlpha" values="0 0 0 0 0 0 0 0 0 0 0 0 0 0 0 0 0 0 127 0"/><feOffset dy="-1"/><feGaussianBlur stdDeviation=".5"/><feComposite in2="hardAlpha" operator="out"/><feColorMatrix values="0 0 0 0 0 0 0 0 0 0 0 0 0 0 0 0 0 0 0.02 0"/><feBlend in2="BackgroundImageFix" result="effect1_dropShadow_13570_103704"/><feBlend in="SourceGraphic" in2="effect1_dropShadow_13570_103704" result="shape"/><feColorMatrix in="SourceAlpha" result="hardAlpha" values="0 0 0 0 0 0 0 0 0 0 0 0 0 0 0 0 0 0 127 0"/><feOffset dy="-4.556"/><feGaussianBlur stdDeviation="1.139"/><feComposite in2="hardAlpha" k2="-1" k3="1" operator="arithmetic"/><feColorMatrix values="0 0 0 0 0 0 0 0 0 0 0 0 0 0 0 0 0 0 0.04 0"/><feBlend in2="shape" result="effect2_innerShadow_13570_103704"/><feColorMatrix in="SourceAlpha" result="hardAlpha" values="0 0 0 0 0 0 0 0 0 0 0 0 0 0 0 0 0 0 127 0"/><feOffset dy="4.556"/><feGaussianBlur stdDeviation="1.139"/><feComposite in2="hardAlpha" k2="-1" k3="1" operator="arithmetic"/><feColorMatrix values="0 0 0 0 0 0 0 0 0 0 0 0 0 0 0 0 0 0 0.04 0"/><feBlend in2="effect2_innerShadow_13570_103704" result="effect3_innerShadow_13570_103704"/></filter><filter id="c" width="77.906" height="61.553" x="20.977" y="26.352" color-interpolation-filters="sRGB" filterUnits="userSpaceOnUse"><feFlood flood-opacity="0" result="BackgroundImageFix"/><feColorMatrix in="SourceAlpha" result="hardAlpha" values="0 0 0 0 0 0 0 0 0 0 0 0 0 0 0 0 0 0 127 0"/><feOffset dy="-1"/><feGaussianBlur stdDeviation=".5"/><feComposite in2="hardAlpha" operator="out"/><feColorMatrix values="0 0 0 0 0 0 0 0 0 0 0 0 0 0 0 0 0 0 0.02 0"/><feBlend in2="BackgroundImageFix" result="effect1_dropShadow_13570_103704"/><feBlend in="SourceGraphic" in2="effect1_dropShadow_13570_103704" result="shape"/><feColorMatrix in="SourceAlpha" result="hardAlpha" values="0 0 0 0 0 0 0 0 0 0 0 0 0 0 0 0 0 0 127 0"/><feOffset dy="-4.556"/><feGaussianBlur stdDeviation="1.139"/><feComposite in2="hardAlpha" k2="-1" k3="1" operator="arithmetic"/><feColorMatrix values="0 0 0 0 0 0 0 0 0 0 0 0 0 0 0 0 0 0 0.04 0"/><feBlend in2="shape" result="effect2_innerShadow_13570_103704"/><feColorMatrix in="SourceAlpha" result="hardAlpha" values="0 0 0 0 0 0 0 0 0 0 0 0 0 0 0 0 0 0 127 0"/><feOffset dy="4.556"/><feGaussianBlur stdDeviation="1.139"/><feComposite in2="hardAlpha" k2="-1" k3="1" operator="arithmetic"/><feColorMatrix values="0 0 0 0 0 0 0 0 0 0 0 0 0 0 0 0 0 0 0.04 0"/><feBlend in2="effect2_innerShadow_13570_103704" result="effect3_innerShadow_13570_103704"/></filter><filter id="f" width="70.41" height="43.387" x="24.559" y="30.077" color-interpolation-filters="sRGB" filterUnits="userSpaceOnUse"><feFlood flood-opacity="0" result="BackgroundImageFix"/><feBlend in="SourceGraphic" in2="BackgroundImageFix" result="shape"/><feColorMatrix in="SourceAlpha" result="hardAlpha" values="0 0 0 0 0 0 0 0 0 0 0 0 0 0 0 0 0 0 127 0"/><feOffset dy="-5.385"/><feGaussianBlur stdDeviation=".769"/><feComposite in2="hardAlpha" k2="-1" k3="1" operator="arithmetic"/><feColorMatrix values="0 0 0 0 0 0 0 0 0 0 0 0 0 0 0 0 0 0 0.02 0"/><feBlend in2="shape" result="effect1_innerShadow_13570_103704"/></filter></defs></svg>