<svg xmlns="http://www.w3.org/2000/svg" width="120" height="120" fill="none"><g filter="url(#a)"><path fill="url(#b)" d="M77.795 23.712H55.877a3.131 3.131 0 0 1-6.262 0H27.697A4.697 4.697 0 0 0 23 28.41v65.754a4.697 4.697 0 0 0 4.697 4.697h50.098a4.697 4.697 0 0 0 4.697-4.697V28.409a4.697 4.697 0 0 0-4.697-4.697Z"/></g><path stroke="#CDCDCD" d="M55.877 23.212h-.5v.5a2.631 2.631 0 0 1-5.262 0v-.5H27.697A5.197 5.197 0 0 0 22.5 28.41v65.754a5.197 5.197 0 0 0 5.197 5.197h50.098a5.197 5.197 0 0 0 5.197-5.197V28.409a5.197 5.197 0 0 0-5.197-5.197H55.877Z"/><path fill="#CDCDCD" d="M80.928 77.985c-.529 0-1.048.036-1.566.08V28.408c0-.865-.701-1.566-1.566-1.566H69.97a1.566 1.566 0 0 1-1.566-1.565v-1.566H55.878a3.131 3.131 0 0 1-6.262 0H37.092v1.566c0 .864-.701 1.565-1.566 1.565h-7.828c-.864 0-1.565.701-1.565 1.566v65.754c0 .865.7 1.566 1.566 1.566h45.4c.186 1.076.462 2.122.819 3.13h3.879a4.697 4.697 0 0 0 4.697-4.696V78.064a18.888 18.888 0 0 0-1.566-.079Z"/><g filter="url(#c)"><path fill="url(#d)" d="M74.663 92.597H30.827a1.566 1.566 0 0 1-1.565-1.566V31.54c0-.865.7-1.566 1.565-1.566h43.836c.865 0 1.566.701 1.566 1.566v59.491c0 .865-.701 1.566-1.566 1.566Z"/></g><path fill="url(#e)" d="M76.23 91.032V74.426c-8.098 2.089-14.09 9.42-14.09 18.171h12.525c.865 0 1.566-.7 1.566-1.565Z"/><g filter="url(#f)"><path fill="url(#g)" d="M62.14 20.581h-3.999c-1.085-1.864-3.082-3.131-5.394-3.131-2.312 0-4.309 1.267-5.394 3.131h-4a3.131 3.131 0 0 0-3.13 3.131v6.262c0 .865.7 1.566 1.565 1.566h21.918c.865 0 1.566-.701 1.566-1.566v-6.262a3.131 3.131 0 0 0-3.132-3.13Zm-9.393 5.48a2.348 2.348 0 1 1 0-4.697 2.348 2.348 0 0 1 0 4.697Z"/></g><path stroke="#CDCDCD" d="m57.709 20.832.144.25h4.288a2.631 2.631 0 0 1 2.63 2.63v6.262c0 .589-.476 1.066-1.065 1.066H41.788a1.066 1.066 0 0 1-1.065-1.066v-6.262a2.631 2.631 0 0 1 2.63-2.63h4.288l.145-.25c1-1.72 2.839-2.882 4.961-2.882 2.123 0 3.96 1.162 4.962 2.883Zm-7.81 2.88a2.848 2.848 0 1 0 5.697 0 2.848 2.848 0 0 0-5.697 0Z"/><path fill="#CDCDCD" d="M41.788 31.54h21.918a1.566 1.566 0 0 0 0-3.131H41.788a1.566 1.566 0 0 0 0 3.131Z"/><path fill="url(#h)" d="M80.656 102.311c8.646 0 15.655-7.009 15.655-15.655C96.311 78.009 89.302 71 80.656 71 72.009 71 65 78.01 65 86.656s7.01 15.655 15.656 15.655Z"/><path stroke="#fff" stroke-linecap="round" stroke-linejoin="round" stroke-width="3.077" d="m76 87.808 2.885 2.692 6.538-7.5"/><path fill="url(#i)" d="M46.483 48.372v-5.72c1.943.36 3.132 1.33 3.132 2.049a1.565 1.565 0 1 0 3.13 0c0-2.624-2.647-4.747-6.261-5.229v-.104a1.565 1.565 0 1 0-3.132 0v.104c-3.614.482-6.262 2.605-6.262 5.229 0 3.714 3.431 5.15 6.262 6.015v5.721c-1.942-.361-3.13-1.33-3.13-2.05a1.565 1.565 0 1 0-3.132 0c0 2.624 2.648 4.748 6.262 5.229v.104a1.565 1.565 0 1 0 3.131 0v-.104c3.614-.481 6.263-2.605 6.263-5.228 0-3.715-3.431-5.15-6.263-6.016Zm-6.262-3.671c0-.72 1.189-1.689 3.131-2.05v4.752c-2.307-.823-3.13-1.57-3.13-2.702Zm6.263 11.736v-4.752c2.306.823 3.13 1.57 3.13 2.702 0 .72-1.188 1.689-3.13 2.05Z"/><path fill="#E6ECF5" d="M57.41 42.301h18.161v.956H57.41zm0 3.823h18.161v.956H57.41zm0 3.824h18.161v.956H57.41zm0 3.823h18.161v.956H57.41zm0 3.823h18.161v.956H57.41zM35.426 76.711h18.161v.956H35.426zm0 3.823h18.161v.956H35.426zm0 3.823h18.161v.956H35.426z"/><defs><linearGradient id="b" x1="52.746" x2="52.746" y1="23.712" y2="98.859" gradientUnits="userSpaceOnUse"><stop stop-color="#FEFEFE"/><stop offset="1" stop-color="#F3F3F3"/></linearGradient><linearGradient id="d" x1="52.745" x2="52.745" y1="29.974" y2="92.597" gradientUnits="userSpaceOnUse"><stop stop-color="#FEFEFE"/><stop offset="1" stop-color="#F3F3F3"/></linearGradient><linearGradient id="e" x1="69.186" x2="69.186" y1="74.426" y2="92.597" gradientUnits="userSpaceOnUse"><stop stop-color="#FEFEFE"/><stop offset="1" stop-color="#F3F3F3"/></linearGradient><linearGradient id="g" x1="52.747" x2="52.747" y1="17.45" y2="31.54" gradientUnits="userSpaceOnUse"><stop stop-color="#FEFEFE"/><stop offset="1" stop-color="#F3F3F3"/></linearGradient><linearGradient id="h" x1="80.656" x2="80.656" y1="71" y2="102.311" gradientUnits="userSpaceOnUse"><stop stop-color="#939DA5"/><stop offset="1" stop-color="#676F76"/></linearGradient><linearGradient id="i" x1="44.918" x2="44.918" y1="37.802" y2="61.286" gradientUnits="userSpaceOnUse"><stop stop-color="#939DA5"/><stop offset="1" stop-color="#676F76"/></linearGradient><filter id="a" width="61.492" height="78.686" x="22" y="21.174" color-interpolation-filters="sRGB" filterUnits="userSpaceOnUse"><feFlood flood-opacity="0" result="BackgroundImageFix"/><feBlend in="SourceGraphic" in2="BackgroundImageFix" result="shape"/><feColorMatrix in="SourceAlpha" result="hardAlpha" values="0 0 0 0 0 0 0 0 0 0 0 0 0 0 0 0 0 0 127 0"/><feOffset dy="-5.385"/><feGaussianBlur stdDeviation=".769"/><feComposite in2="hardAlpha" k2="-1" k3="1" operator="arithmetic"/><feColorMatrix values="0 0 0 0 0 0 0 0 0 0 0 0 0 0 0 0 0 0 0.02 0"/><feBlend in2="shape" result="effect1_innerShadow_13570_103682"/></filter><filter id="c" width="83.29" height="98.944" x="11.101" y="4.167" color-interpolation-filters="sRGB" filterUnits="userSpaceOnUse"><feFlood flood-opacity="0" result="BackgroundImageFix"/><feColorMatrix in="SourceAlpha" result="hardAlpha" values="0 0 0 0 0 0 0 0 0 0 0 0 0 0 0 0 0 0 127 0"/><feOffset dy="-7.647"/><feGaussianBlur stdDeviation="9.08"/><feColorMatrix values="0 0 0 0 0.397708 0 0 0 0 0.47749 0 0 0 0 0.575 0 0 0 0.17 0"/><feBlend in2="BackgroundImageFix" result="effect1_dropShadow_13570_103682"/><feBlend in="SourceGraphic" in2="effect1_dropShadow_13570_103682" result="shape"/></filter><filter id="f" width="25.051" height="15.629" x="40.223" y="15.912" color-interpolation-filters="sRGB" filterUnits="userSpaceOnUse"><feFlood flood-opacity="0" result="BackgroundImageFix"/><feBlend in="SourceGraphic" in2="BackgroundImageFix" result="shape"/><feColorMatrix in="SourceAlpha" result="hardAlpha" values="0 0 0 0 0 0 0 0 0 0 0 0 0 0 0 0 0 0 127 0"/><feOffset dy="-5.385"/><feGaussianBlur stdDeviation=".769"/><feComposite in2="hardAlpha" k2="-1" k3="1" operator="arithmetic"/><feColorMatrix values="0 0 0 0 0 0 0 0 0 0 0 0 0 0 0 0 0 0 0.02 0"/><feBlend in2="shape" result="effect1_innerShadow_13570_103682"/></filter></defs></svg>