<svg xmlns="http://www.w3.org/2000/svg" width="120" height="120" fill="none"><path fill="#F1F3F9" stroke="#CDCDCD" stroke-miterlimit="10" d="m54.785 59.81-.88-2.453c-.19-.629-.818-1.006-1.447-1.006H36.984c-1.321 0-2.328 1.006-2.328 2.327v34.66-5.725h52.838V63.144c0-1.32-1.006-2.327-2.327-2.327H56.232c-.63 0-1.195-.378-1.447-1.007Z"/><g filter="url(#a)"><path fill="url(#b)" d="m36.165 39.807 10.567 18.368c.315.629.126 1.447-.503 1.761L28.24 70.001c-.63.314-1.447.125-1.761-.504L13.205 45.72c-.44-.629-.126-1.447.504-1.761l13.083-7.297 9.373 3.145Z"/></g><path stroke="#CDCDCD" d="m36.598 39.558-.094-.164-.18-.06-9.373-3.146-.21-.07-.192.107-13.075 7.292c-.834.424-1.317 1.548-.694 2.467l13.256 23.748c.466.915 1.606 1.126 2.427.716l.01-.005.01-.006 17.981-10.06c.915-.465 1.126-1.605.715-2.426l-.006-.013-.007-.013-10.568-18.367Z"/><path fill="#E6ECF5" d="m26.312 41.535-8.68 4.843c-.19.126-.504.063-.567-.189-.125-.188-.063-.503.126-.566l8.68-4.78c.19-.126.504-.063.567.125.126.19.063.504-.126.566Zm-4.214 5.095-3.334 1.824c-.189.125-.44.063-.503-.126-.126-.189-.063-.503.126-.566l3.27-1.825c.19-.125.504-.062.567.126.188.126.125.44-.126.566Z"/><g filter="url(#c)"><path fill="#CDCDCD" d="m26.793 36.662 2.893 5.095c.44.692 1.384.944 2.076.566l4.592-2.516"/></g><path fill="url(#d)" d="M37.234 51.004c-.566-1.133-1.321-2.453-2.265-3.397-.503-.503-1.132-.818-1.887-.818-.754 0-1.446.252-2.201.63-1.321.566-2.516 1.132-3.712 1.886-1.069.63-2.327 1.321-3.145 2.328-1.069 1.447-.503 2.893.252 4.403.566 1.132 1.321 2.453 2.265 3.397.754.755 1.76 1.006 2.767.692 1.321-.315 3.774-1.699 4.907-2.39 1.006-.63 2.201-1.196 2.956-2.14 1.447-1.446.944-2.956.063-4.591Zm-8.806 1.572c-.19-.377-.063-.692.44-.629 1.32.063 2.579.063 3.837.126.503 0 .629.252.44.692a157.875 157.875 0 0 0-1.887 3.334c-.251.377-.566.377-.755.063-.188-.189-1.887-3.271-2.075-3.586Z"/><path fill="#E6ECF5" d="m76.172 71.888-.566-.378c-.126-.126-.126-.251 0-.377s.252-.126.44-.063l.566.377c.126.063.126.252.063.378-.188.126-.377.126-.503.063Zm-1.508-1.196-3.208-2.516c-.126-.063-.126-.251-.063-.377s.251-.126.44-.063l3.208 2.516c.126.063.126.252.063.377-.126.126-.314.19-.44.063Z"/><g filter="url(#e)"><path fill="url(#f)" d="M107.31 54.526 95.295 70.063c-.377.566-1.132.63-1.698.189l-14.97-11.763c-.567-.377-.63-1.132-.19-1.698l15.6-19.815c.378-.566 1.132-.629 1.699-.188l10.882 8.555.692 9.183Z"/></g><path stroke="#CDCDCD" d="m107.705 54.832.118-.152-.015-.191-.692-9.184-.016-.22-.173-.136-10.882-8.554-.002-.002c-.744-.578-1.837-.549-2.41.288l-15.588 19.8-.002.003c-.579.743-.549 1.837.288 2.41l14.957 11.751.002.002c.744.578 1.838.548 2.41-.29l12.005-15.525Z"/><path fill="#E6ECF5" d="m101.861 46.818-7.233-5.661c-.126-.126-.19-.315-.063-.566.126-.126.314-.19.566-.063l7.234 5.66c.125.127.188.315.062.567-.188.189-.377.189-.566.063Zm-5.786-1.761-2.705-2.202c-.126-.126-.189-.314-.063-.566.126-.189.314-.189.566-.063l2.705 2.202c.126.126.188.314.063.566-.189.188-.44.188-.566.063Z"/><g filter="url(#g)"><path fill="#CDCDCD" d="m106.618 45.343-3.334 4.214c-.503.629-.314 1.51.252 1.95l3.837 3.02"/></g><path fill="url(#h)" d="m102.655 55.47-3.774-2.894-3.9-3.082-3.586-2.83c-.377-.315-1.006-.252-1.32.188l-5.159 6.542c-.314.377-.251 1.006.126 1.32l11.323 8.933c.377.315 1.006.252 1.32-.189l5.158-6.541c.315-.567.252-1.07-.188-1.447Zm-11.952-.063 1.132-1.51 3.46 2.705-1.132 1.51-3.46-2.705Zm3.145 3.145-1.069 1.384-3.46-2.705 1.07-1.384 3.46 2.705Zm2.957-3.837-1.132 1.51-3.46-2.705 1.132-1.51 3.46 2.705ZM93.66 51.57l1.258-1.51 3.46 2.705-1.133 1.51-3.585-2.705Zm6.29 7.988-3.837-3.019 1.132-1.51 3.837 3.02-1.132 1.51Zm-8.177-6.416L88.06 50.25l1.133-1.51 3.71 2.894-1.131 1.51Zm-4.09-2.453 3.712 2.894-1.132 1.51-3.711-2.894 1.132-1.51Zm8.115 6.29L99.635 60l-1.132 1.51-3.837-3.02 1.132-1.51Zm6.605-.503-.943 1.195-3.837-3.019 1.132-1.51 3.522 2.768c.252.126.252.378.126.566Zm-11.385-9.498 3.397 2.705-1.133 1.51-3.711-2.894.944-1.195c.125-.189.377-.189.503-.126Zm-5.662 6.668.818-1.007 3.711 2.894-1.069 1.383-3.46-2.704c-.125-.126-.125-.44 0-.566Zm11.386 9.372-3.523-2.768 1.07-1.383 3.837 3.019-.88 1.07c-.127.25-.378.25-.504.062Z"/><path fill="#fff" d="m88.564 72.894-3.9 17.424c-.252 1.007-1.447 1.824-2.957 1.824H39.374c-1.447 0-2.705-.754-2.957-1.824L33.21 76.04c-.251-1.07.944-2.076 2.454-2.076h23.903c.754 0 1.32-.377 1.572-.817l.692-1.51c.252-.503.88-.818 1.573-.818h22.77c1.447 0 2.58 1.007 2.39 2.076Z"/><g filter="url(#i)"><path fill="url(#j)" d="M91.645 70.567 87.305 97.3a3.314 3.314 0 0 1-3.27 2.768H36.856c-1.635 0-3.02-1.132-3.27-2.768L30 75.347c-.252-1.635 1.006-3.208 2.705-3.208h26.607c.818 0 1.51-.566 1.762-1.32l.755-2.328c.251-.755.943-1.321 1.76-1.321h25.35c1.636.189 2.957 1.698 2.705 3.397Z"/></g><path stroke="#CDCDCD" d="m92.139 70.647.001-.007c.297-2.008-1.258-3.75-3.142-3.967l-.029-.003H63.591c-1.058 0-1.924.728-2.236 1.663l-.001.004-.754 2.323v.002c-.193.574-.71.977-1.287.977H32.706c-2.022 0-3.495 1.863-3.2 3.784l.001.005 3.585 21.948v.003c.292 1.888 1.894 3.189 3.765 3.189h47.177c1.88 0 3.474-1.373 3.765-3.189l4.34-26.732Z"/><g filter="url(#k)"><path fill="url(#l)" d="M77.304 35.593 75.291 57.42c-.063.755-.754 1.32-1.51 1.195l-21.26-2.202c-.755-.063-1.321-.755-1.258-1.51l2.893-27.991c.063-.755.755-1.321 1.51-1.195l15.41 1.572 6.228 8.303Z"/></g><path stroke="#CDCDCD" d="m77.802 35.638.018-.191-.116-.155-6.227-8.303-.132-.175-.217-.022L55.73 25.22c-1.047-.165-1.984.62-2.073 1.644l-2.893 27.987v.01c-.086 1.018.672 1.96 1.709 2.049l21.242 2.2c1.049.165 1.987-.621 2.073-1.647v-.003l2.013-21.823Z"/><g filter="url(#m)"><path fill="#CDCDCD" d="m71.141 27.352-.629 5.976c-.063.818.566 1.636 1.447 1.699l5.41.566"/></g><path fill="url(#n)" d="m73.151 51.507-17.424-1.95c-.44-.063-.755-.377-.692-.818l1.321-11.133c.063-.378.44-.755.818-.692L74.598 38.8c.44.063.755.377.692.817l-1.321 11.134c-.063.44-.44.755-.818.755Z"/><path fill="#CDCDCD" d="m65.29 48.803-8.052-.944 4.53-4.089 3.522 5.032Z"/><path fill="#fff" d="M71.957 49.557 60.32 48.173l6.605-5.85 5.032 7.234Zm-10.818-7.548c.88 0 1.572-.692 1.572-1.573 0-.88-.691-1.572-1.572-1.572-.88 0-1.573.692-1.573 1.572 0 .88.692 1.573 1.573 1.573Z"/><path fill="#E6ECF5" d="m67.515 30.778-10.567-1.195c-.126 0-.252-.126-.19-.252v-.126c0-.125.127-.251.252-.188l10.568 1.195c.126 0 .252.126.189.252v.125c.063.126-.063.252-.252.189Zm-.061 2.012L56.76 31.597c-.126 0-.252-.126-.189-.252v-.126c0-.125.126-.251.252-.188l10.693 1.195c.126 0 .252.126.19.251v.126c.062.063-.127.189-.252.189Zm.376 20.57-13.273-1.51c-.189 0-.315-.189-.252-.377 0-.189.19-.315.44-.252l13.21 1.51c.189 0 .315.189.252.377-.063.189-.189.315-.377.252Zm-1.952-18.682-9.31-1.07c-.188 0-.314-.188-.25-.377 0-.189.188-.314.44-.252l9.309 1.07c.189 0 .315.188.252.377-.063.126-.19.252-.44.252Zm6.86 21.261-18.493-2.202c-.19 0-.315-.188-.252-.377 0-.189.189-.315.44-.252l18.494 2.14c.188 0 .314.188.251.377a.473.473 0 0 1-.44.314Z"/><g filter="url(#o)"><path fill="url(#p)" d="M53.905 22.823c-.252.126-.566 0-.692-.251l-1.132-2.83c-.126-.252 0-.567.251-.693.252-.125.566 0 .692.252l1.132 2.83c.19.378.063.63-.251.692Z"/></g><g filter="url(#q)"><path fill="url(#r)" d="M51.828 25.591c-.126.126-.252.189-.504.126l-2.956-.566c-.252-.063-.503-.315-.44-.63.063-.25.314-.503.629-.377l2.956.566c.252.063.503.315.44.63-.062.062-.062.188-.125.251Z"/></g><g filter="url(#s)"><path fill="url(#t)" d="M57.803 22.509c-.063 0-.125-.063-.251-.063a.573.573 0 0 1-.063-.755l1.824-2.39a.573.573 0 0 1 .755-.063.573.573 0 0 1 .063.755l-1.824 2.39c-.189.063-.378.126-.504.126Z"/></g><defs><linearGradient id="b" x1="29.941" x2="29.941" y1="36.662" y2="70.15" gradientUnits="userSpaceOnUse"><stop stop-color="#FEFEFE"/><stop offset="1" stop-color="#F3F3F3"/></linearGradient><linearGradient id="d" x1="30.758" x2="30.758" y1="46.789" y2="60.257" gradientUnits="userSpaceOnUse"><stop stop-color="#939DA5"/><stop offset="1" stop-color="#676F76"/></linearGradient><linearGradient id="f" x1="92.729" x2="92.729" y1="36.499" y2="70.541" gradientUnits="userSpaceOnUse"><stop stop-color="#FEFEFE"/><stop offset="1" stop-color="#F3F3F3"/></linearGradient><linearGradient id="h" x1="93.877" x2="93.877" y1="46.467" y2="63.844" gradientUnits="userSpaceOnUse"><stop stop-color="#939DA5"/><stop offset="1" stop-color="#676F76"/></linearGradient><linearGradient id="j" x1="60.822" x2="60.822" y1="67.17" y2="100.068" gradientUnits="userSpaceOnUse"><stop stop-color="#FEFEFE"/><stop offset="1" stop-color="#F3F3F3"/></linearGradient><linearGradient id="l" x1="64.281" x2="64.281" y1="25.699" y2="58.632" gradientUnits="userSpaceOnUse"><stop stop-color="#FEFEFE"/><stop offset="1" stop-color="#F3F3F3"/></linearGradient><linearGradient id="n" x1="65.163" x2="65.163" y1="36.907" y2="51.507" gradientUnits="userSpaceOnUse"><stop stop-color="#939DA5"/><stop offset="1" stop-color="#676F76"/></linearGradient><linearGradient id="p" x1="53.138" x2="53.138" y1="19" y2="22.873" gradientUnits="userSpaceOnUse"><stop stop-color="#939DA5"/><stop offset="1" stop-color="#676F76"/></linearGradient><linearGradient id="r" x1="49.941" x2="49.941" y1="24.111" y2="25.741" gradientUnits="userSpaceOnUse"><stop stop-color="#939DA5"/><stop offset="1" stop-color="#676F76"/></linearGradient><linearGradient id="t" x1="58.81" x2="58.81" y1="19.124" y2="22.509" gradientUnits="userSpaceOnUse"><stop stop-color="#939DA5"/><stop offset="1" stop-color="#676F76"/></linearGradient><filter id="a" width="35.883" height="37.111" x="11.996" y="34.035" color-interpolation-filters="sRGB" filterUnits="userSpaceOnUse"><feFlood flood-opacity="0" result="BackgroundImageFix"/><feBlend in="SourceGraphic" in2="BackgroundImageFix" result="shape"/><feColorMatrix in="SourceAlpha" result="hardAlpha" values="0 0 0 0 0 0 0 0 0 0 0 0 0 0 0 0 0 0 127 0"/><feOffset dy="-5.385"/><feGaussianBlur stdDeviation=".769"/><feComposite in2="hardAlpha" k2="-1" k3="1" operator="arithmetic"/><feColorMatrix values="0 0 0 0 0 0 0 0 0 0 0 0 0 0 0 0 0 0 0.02 0"/><feBlend in2="shape" result="effect1_innerShadow_13570_103592"/></filter><filter id="c" width="9.563" height="7.375" x="26.793" y="35.124" color-interpolation-filters="sRGB" filterUnits="userSpaceOnUse"><feFlood flood-opacity="0" result="BackgroundImageFix"/><feBlend in="SourceGraphic" in2="BackgroundImageFix" result="shape"/><feColorMatrix in="SourceAlpha" result="hardAlpha" values="0 0 0 0 0 0 0 0 0 0 0 0 0 0 0 0 0 0 127 0"/><feOffset dy="-5.385"/><feGaussianBlur stdDeviation=".769"/><feComposite in2="hardAlpha" k2="-1" k3="1" operator="arithmetic"/><feColorMatrix values="0 0 0 0 0 0 0 0 0 0 0 0 0 0 0 0 0 0 0.02 0"/><feBlend in2="shape" result="effect1_innerShadow_13570_103592"/></filter><filter id="e" width="31.188" height="37.577" x="77.148" y="33.962" color-interpolation-filters="sRGB" filterUnits="userSpaceOnUse"><feFlood flood-opacity="0" result="BackgroundImageFix"/><feBlend in="SourceGraphic" in2="BackgroundImageFix" result="shape"/><feColorMatrix in="SourceAlpha" result="hardAlpha" values="0 0 0 0 0 0 0 0 0 0 0 0 0 0 0 0 0 0 127 0"/><feOffset dy="-5.385"/><feGaussianBlur stdDeviation=".769"/><feComposite in2="hardAlpha" k2="-1" k3="1" operator="arithmetic"/><feColorMatrix values="0 0 0 0 0 0 0 0 0 0 0 0 0 0 0 0 0 0 0.02 0"/><feBlend in2="shape" result="effect1_innerShadow_13570_103592"/></filter><filter id="g" width="4.379" height="10.722" x="102.992" y="43.804" color-interpolation-filters="sRGB" filterUnits="userSpaceOnUse"><feFlood flood-opacity="0" result="BackgroundImageFix"/><feBlend in="SourceGraphic" in2="BackgroundImageFix" result="shape"/><feColorMatrix in="SourceAlpha" result="hardAlpha" values="0 0 0 0 0 0 0 0 0 0 0 0 0 0 0 0 0 0 127 0"/><feOffset dy="-5.385"/><feGaussianBlur stdDeviation=".769"/><feComposite in2="hardAlpha" k2="-1" k3="1" operator="arithmetic"/><feColorMatrix values="0 0 0 0 0 0 0 0 0 0 0 0 0 0 0 0 0 0 0.02 0"/><feBlend in2="shape" result="effect1_innerShadow_13570_103592"/></filter><filter id="i" width="63.707" height="36.437" x="28.969" y="64.631" color-interpolation-filters="sRGB" filterUnits="userSpaceOnUse"><feFlood flood-opacity="0" result="BackgroundImageFix"/><feBlend in="SourceGraphic" in2="BackgroundImageFix" result="shape"/><feColorMatrix in="SourceAlpha" result="hardAlpha" values="0 0 0 0 0 0 0 0 0 0 0 0 0 0 0 0 0 0 127 0"/><feOffset dy="-5.385"/><feGaussianBlur stdDeviation=".769"/><feComposite in2="hardAlpha" k2="-1" k3="1" operator="arithmetic"/><feColorMatrix values="0 0 0 0 0 0 0 0 0 0 0 0 0 0 0 0 0 0 0.02 0"/><feBlend in2="shape" result="effect1_innerShadow_13570_103592"/></filter><filter id="k" width="28.078" height="36.473" x="50.258" y="23.16" color-interpolation-filters="sRGB" filterUnits="userSpaceOnUse"><feFlood flood-opacity="0" result="BackgroundImageFix"/><feBlend in="SourceGraphic" in2="BackgroundImageFix" result="shape"/><feColorMatrix in="SourceAlpha" result="hardAlpha" values="0 0 0 0 0 0 0 0 0 0 0 0 0 0 0 0 0 0 127 0"/><feOffset dy="-5.385"/><feGaussianBlur stdDeviation=".769"/><feComposite in2="hardAlpha" k2="-1" k3="1" operator="arithmetic"/><feColorMatrix values="0 0 0 0 0 0 0 0 0 0 0 0 0 0 0 0 0 0 0.02 0"/><feBlend in2="shape" result="effect1_innerShadow_13570_103592"/></filter><filter id="m" width="6.859" height="9.779" x="70.508" y="25.814" color-interpolation-filters="sRGB" filterUnits="userSpaceOnUse"><feFlood flood-opacity="0" result="BackgroundImageFix"/><feBlend in="SourceGraphic" in2="BackgroundImageFix" result="shape"/><feColorMatrix in="SourceAlpha" result="hardAlpha" values="0 0 0 0 0 0 0 0 0 0 0 0 0 0 0 0 0 0 127 0"/><feOffset dy="-5.385"/><feGaussianBlur stdDeviation=".769"/><feComposite in2="hardAlpha" k2="-1" k3="1" operator="arithmetic"/><feColorMatrix values="0 0 0 0 0 0 0 0 0 0 0 0 0 0 0 0 0 0 0.02 0"/><feBlend in2="shape" result="effect1_innerShadow_13570_103592"/></filter><filter id="o" width="2.215" height="6.181" x="52.031" y="17.462" color-interpolation-filters="sRGB" filterUnits="userSpaceOnUse"><feFlood flood-opacity="0" result="BackgroundImageFix"/><feBlend in="SourceGraphic" in2="BackgroundImageFix" result="shape"/><feColorMatrix in="SourceAlpha" result="hardAlpha" values="0 0 0 0 0 0 0 0 0 0 0 0 0 0 0 0 0 0 127 0"/><feOffset dy="-1.538"/><feGaussianBlur stdDeviation=".769"/><feComposite in2="hardAlpha" k2="-1" k3="1" operator="arithmetic"/><feColorMatrix values="0 0 0 0 0 0 0 0 0 0 0 0 0 0 0 0 0 0 0.25 0"/><feBlend in2="shape" result="effect1_innerShadow_13570_103592"/><feColorMatrix in="SourceAlpha" result="hardAlpha" values="0 0 0 0 0 0 0 0 0 0 0 0 0 0 0 0 0 0 127 0"/><feOffset dy=".769"/><feGaussianBlur stdDeviation=".769"/><feComposite in2="hardAlpha" k2="-1" k3="1" operator="arithmetic"/><feColorMatrix values="0 0 0 0 0.39738 0 0 0 0 0.39738 0 0 0 0 0.39738 0 0 0 0.12 0"/><feBlend in2="effect1_innerShadow_13570_103592" result="effect2_innerShadow_13570_103592"/></filter><filter id="q" width="4.047" height="3.938" x="47.918" y="22.572" color-interpolation-filters="sRGB" filterUnits="userSpaceOnUse"><feFlood flood-opacity="0" result="BackgroundImageFix"/><feBlend in="SourceGraphic" in2="BackgroundImageFix" result="shape"/><feColorMatrix in="SourceAlpha" result="hardAlpha" values="0 0 0 0 0 0 0 0 0 0 0 0 0 0 0 0 0 0 127 0"/><feOffset dy="-1.538"/><feGaussianBlur stdDeviation=".769"/><feComposite in2="hardAlpha" k2="-1" k3="1" operator="arithmetic"/><feColorMatrix values="0 0 0 0 0 0 0 0 0 0 0 0 0 0 0 0 0 0 0.25 0"/><feBlend in2="shape" result="effect1_innerShadow_13570_103592"/><feColorMatrix in="SourceAlpha" result="hardAlpha" values="0 0 0 0 0 0 0 0 0 0 0 0 0 0 0 0 0 0 127 0"/><feOffset dy=".769"/><feGaussianBlur stdDeviation=".769"/><feComposite in2="hardAlpha" k2="-1" k3="1" operator="arithmetic"/><feColorMatrix values="0 0 0 0 0.39738 0 0 0 0 0.39738 0 0 0 0 0.39738 0 0 0 0.12 0"/><feBlend in2="effect1_innerShadow_13570_103592" result="effect2_innerShadow_13570_103592"/></filter><filter id="s" width="2.871" height="5.693" x="57.375" y="17.586" color-interpolation-filters="sRGB" filterUnits="userSpaceOnUse"><feFlood flood-opacity="0" result="BackgroundImageFix"/><feBlend in="SourceGraphic" in2="BackgroundImageFix" result="shape"/><feColorMatrix in="SourceAlpha" result="hardAlpha" values="0 0 0 0 0 0 0 0 0 0 0 0 0 0 0 0 0 0 127 0"/><feOffset dy="-1.538"/><feGaussianBlur stdDeviation=".769"/><feComposite in2="hardAlpha" k2="-1" k3="1" operator="arithmetic"/><feColorMatrix values="0 0 0 0 0 0 0 0 0 0 0 0 0 0 0 0 0 0 0.25 0"/><feBlend in2="shape" result="effect1_innerShadow_13570_103592"/><feColorMatrix in="SourceAlpha" result="hardAlpha" values="0 0 0 0 0 0 0 0 0 0 0 0 0 0 0 0 0 0 127 0"/><feOffset dy=".769"/><feGaussianBlur stdDeviation=".769"/><feComposite in2="hardAlpha" k2="-1" k3="1" operator="arithmetic"/><feColorMatrix values="0 0 0 0 0.39738 0 0 0 0 0.39738 0 0 0 0 0.39738 0 0 0 0.12 0"/><feBlend in2="effect1_innerShadow_13570_103592" result="effect2_innerShadow_13570_103592"/></filter></defs></svg>