<svg xmlns="http://www.w3.org/2000/svg" width="120" height="120" fill="none"><g filter="url(#a)"><path fill="url(#b)" d="M57.453 53.907C57.14 55.582 55.78 57.151 54 57.57c-1.36.314-2.721 0-3.663-.733v12.14H39.035c.419-.837.523-1.674.419-2.616-.21-2.093-1.989-3.768-3.977-3.977-2.721-.314-5.128 1.779-5.128 4.5 0 .733.104 1.465.418 1.988H18V45.535c0-4.814 3.872-8.686 8.79-8.686h23.443v12.14c.837-.524 1.674-.838 2.616-.838 2.825.419 5.128 2.826 4.604 5.756Z"/></g><path stroke="#CDCDCD" d="M57.945 54v-.005c.586-3.279-1.996-5.89-5.023-6.338l-.036-.006h-.037c-.763 0-1.457.184-2.116.494V36.349H26.79c-5.191 0-9.291 4.092-9.291 9.186v23.837H31.65l-.455-.757c-.243-.405-.347-1.026-.347-1.731 0-2.413 2.137-4.284 4.57-4.003h.005c1.763.186 3.347 1.682 3.532 3.53v.005c.097.865 0 1.602-.368 2.337l-.362.724h12.612v-11.75c.961.456 2.123.596 3.275.33h.002c1.986-.468 3.483-2.204 3.83-4.058Z"/><g filter="url(#c)"><path fill="url(#d)" d="M42.699 84.256c-.42 2.825 1.779 5.232 4.604 5.232 1.151 0 2.198-.418 3.035-1.046V101H26.896c-4.814 0-8.79-3.977-8.79-8.686V68.872h12.662c-.314-.628-.418-1.256-.418-2.093.104-2.198 1.779-4.081 3.872-4.395 2.825-.314 5.232 1.779 5.232 4.5 0 .732-.104 1.36-.418 1.988h11.093V81.43a4.295 4.295 0 0 0-3.558-1.046c-1.989.209-3.559 1.883-3.872 3.872Z"/></g><path stroke="#CDCDCD" d="M50.129 68.372H39.766c.139-.479.188-.967.188-1.488 0-3.037-2.684-5.342-5.788-4.997h-.009l-.01.002c-2.338.351-4.181 2.44-4.297 4.866v.024c0 .59.05 1.103.189 1.593H17.605v23.942c0 4.99 4.205 9.186 9.291 9.186h23.942V87.442l-.8.6c-.764.573-1.707.946-2.735.946-2.535 0-4.48-2.15-4.11-4.657.284-1.793 1.696-3.267 3.43-3.45l.012-.001.012-.002a3.795 3.795 0 0 1 3.15.926l.832.74V68.372h-.5Z"/><g filter="url(#e)"><path fill="url(#f)" d="M82.57 68.872v23.233c0 4.814-3.977 8.686-8.79 8.686H50.336V88.233c-.837.732-1.883 1.046-3.034 1.046-2.721 0-4.814-2.407-4.605-5.232.314-2.093 1.988-3.663 3.872-3.977 1.36-.105 2.721.314 3.558 1.047V68.558h13.5c-.418.628-.523 1.36-.523 2.093 0 2.617 2.302 4.814 5.128 4.5 2.093-.209 3.872-1.988 4.081-3.976.105-.942-.104-1.78-.418-2.617l10.674.314Z"/></g><path stroke="#CDCDCD" d="M83.07 68.872v-.485l-.485-.014-10.675-.314-.744-.022.261.697c.302.803.483 1.555.39 2.385v.003c-.184 1.748-1.771 3.346-3.634 3.532h-.005c-2.526.281-4.573-1.68-4.573-4.003 0-.692.1-1.308.44-1.815l.517-.778H49.629v12.12c-.89-.465-2.001-.69-3.096-.607l-.022.002-.022.004c-2.09.348-3.937 2.082-4.284 4.395l-.003.02-.002.018c-.228 3.087 2.064 5.77 5.104 5.77.902 0 1.766-.18 2.535-.595v12.106H73.78c5.083 0 9.291-4.088 9.291-9.186V68.872Z"/><path fill="url(#g)" d="m97.432 68.174 3.48-1.05c.252-.072.252-.438 0-.511l-3.48-1.049a.25.25 0 0 1-.179-.179l-1.048-3.471c-.073-.252-.44-.252-.513 0l-1.048 3.471a.25.25 0 0 1-.18.179l-3.47 1.049c-.252.073-.252.439 0 .512l3.48 1.049a.25.25 0 0 1 .178.178l1.049 3.48c.073.252.439.252.512 0l1.048-3.48a.227.227 0 0 1 .171-.178Z"/><path fill="#6C6E78" d="m89.735 37.731 4.328-1.304c.313-.091.313-.546 0-.637l-4.328-1.305a.31.31 0 0 1-.222-.222l-1.305-4.317c-.09-.314-.546-.314-.636 0l-1.305 4.317a.31.31 0 0 1-.222.222l-4.318 1.305c-.313.09-.313.546 0 .637l4.328 1.304a.31.31 0 0 1 .222.222l1.305 4.328c.09.313.546.313.637 0l1.304-4.328a.282.282 0 0 1 .212-.222Z"/><path fill="url(#h)" d="m58.275 23.03 2.175-.655c.157-.046.157-.275 0-.32l-2.175-.656a.155.155 0 0 1-.112-.111l-.655-2.17c-.046-.157-.275-.157-.32 0l-.656 2.17a.155.155 0 0 1-.111.111l-2.17.656c-.158.045-.158.274 0 .32l2.175.655a.156.156 0 0 1 .111.112l.656 2.174c.046.158.274.158.32 0l.655-2.174a.142.142 0 0 1 .107-.112Z"/><path fill="url(#i)" d="M90.297 44.694c-.306 1.298-.764 2.673-1.299 3.819-1.451 2.826-3.743 5.04-6.569 6.492-2.902 1.451-6.34 2.062-9.777 1.298-8.096-1.68-13.29-9.624-11.61-17.72 1.68-8.097 9.548-13.367 17.644-11.61 2.903.61 5.424 2.062 7.562 4.048a15.183 15.183 0 0 1 4.049 13.672Z"/><path fill="#fff" d="M80.368 40.34H76.93v-3.437c0-.688-.534-1.299-1.298-1.299-.688 0-1.299.535-1.299 1.299v3.437h-3.437c-.687 0-1.298.534-1.298 1.298s.534 1.299 1.298 1.299h3.437v3.437c0 .687.535 1.298 1.299 1.298.687 0 1.298-.534 1.298-1.298v-3.437h3.438c.687 0 1.298-.535 1.298-1.299.076-.764-.535-1.298-1.298-1.298Z"/><defs><linearGradient id="b" x1="37.764" x2="37.764" y1="36.849" y2="68.977" gradientUnits="userSpaceOnUse"><stop stop-color="#FEFEFE"/><stop offset="1" stop-color="#F3F3F3"/></linearGradient><linearGradient id="d" x1="34.222" x2="34.222" y1="62.352" y2="101" gradientUnits="userSpaceOnUse"><stop stop-color="#FEFEFE"/><stop offset="1" stop-color="#F3F3F3"/></linearGradient><linearGradient id="f" x1="62.627" x2="62.627" y1="68.558" y2="100.791" gradientUnits="userSpaceOnUse"><stop stop-color="#FEFEFE"/><stop offset="1" stop-color="#F3F3F3"/></linearGradient><linearGradient id="g" x1="95.953" x2="95.953" y1="61.725" y2="72.021" gradientUnits="userSpaceOnUse"><stop stop-color="#939DA5"/><stop offset="1" stop-color="#676F76"/></linearGradient><linearGradient id="h" x1="57.35" x2="57.35" y1="19" y2="25.434" gradientUnits="userSpaceOnUse"><stop stop-color="#939DA5"/><stop offset="1" stop-color="#676F76"/></linearGradient><linearGradient id="i" x1="75.664" x2="75.664" y1="26.635" y2="56.634" gradientUnits="userSpaceOnUse"><stop stop-color="#939DA5"/><stop offset="1" stop-color="#676F76"/></linearGradient><filter id="a" width="41.531" height="35.666" x="17" y="34.311" color-interpolation-filters="sRGB" filterUnits="userSpaceOnUse"><feFlood flood-opacity="0" result="BackgroundImageFix"/><feBlend in="SourceGraphic" in2="BackgroundImageFix" result="shape"/><feColorMatrix in="SourceAlpha" result="hardAlpha" values="0 0 0 0 0 0 0 0 0 0 0 0 0 0 0 0 0 0 127 0"/><feOffset dy="-5.385"/><feGaussianBlur stdDeviation=".769"/><feComposite in2="hardAlpha" k2="-1" k3="1" operator="arithmetic"/><feColorMatrix values="0 0 0 0 0 0 0 0 0 0 0 0 0 0 0 0 0 0 0.02 0"/><feBlend in2="shape" result="effect1_innerShadow_13570_103720"/></filter><filter id="c" width="34.234" height="42.186" x="17.105" y="59.814" color-interpolation-filters="sRGB" filterUnits="userSpaceOnUse"><feFlood flood-opacity="0" result="BackgroundImageFix"/><feBlend in="SourceGraphic" in2="BackgroundImageFix" result="shape"/><feColorMatrix in="SourceAlpha" result="hardAlpha" values="0 0 0 0 0 0 0 0 0 0 0 0 0 0 0 0 0 0 127 0"/><feOffset dy="-5.385"/><feGaussianBlur stdDeviation=".769"/><feComposite in2="hardAlpha" k2="-1" k3="1" operator="arithmetic"/><feColorMatrix values="0 0 0 0 0 0 0 0 0 0 0 0 0 0 0 0 0 0 0.02 0"/><feBlend in2="shape" result="effect1_innerShadow_13570_103720"/></filter><filter id="e" width="41.887" height="35.814" x="41.684" y="65.977" color-interpolation-filters="sRGB" filterUnits="userSpaceOnUse"><feFlood flood-opacity="0" result="BackgroundImageFix"/><feBlend in="SourceGraphic" in2="BackgroundImageFix" result="shape"/><feColorMatrix in="SourceAlpha" result="hardAlpha" values="0 0 0 0 0 0 0 0 0 0 0 0 0 0 0 0 0 0 127 0"/><feOffset dy="-5.385"/><feGaussianBlur stdDeviation=".769"/><feComposite in2="hardAlpha" k2="-1" k3="1" operator="arithmetic"/><feColorMatrix values="0 0 0 0 0 0 0 0 0 0 0 0 0 0 0 0 0 0 0.02 0"/><feBlend in2="shape" result="effect1_innerShadow_13570_103720"/></filter></defs></svg>