<svg width="167" height="32" viewBox="0 0 167 32" fill="none" xmlns="http://www.w3.org/2000/svg">
<mask id="mask0_17149_28651" style="mask-type:alpha" maskUnits="userSpaceOnUse" x="3" y="3" width="26" height="26">
<mask id="mask1_17149_28651" style="mask-type:luminance" maskUnits="userSpaceOnUse" x="3" y="3" width="26" height="26">
<path d="M29 3H3V29H29V3Z" fill="white"/>
</mask>
<g mask="url(#mask1_17149_28651)">
<path d="M20.4801 3L18.1975 7.36697L22.7896 9.84703L25.0722 5.48007L20.4801 3ZM24.3968 17.8508H29.0032V12.5651H24.3968V17.8508ZM18.1975 7.36697C15.7133 12.1197 19.1022 17.8508 24.3968 17.8508V12.5651C23.0241 12.5651 22.1456 11.0792 22.7896 9.84703L18.1975 7.36697Z" fill="#1263BE"/>
<path d="M11.5232 3L13.8058 7.36697L9.21369 9.84703L6.93107 5.48007L11.5232 3ZM7.60644 17.8508H3V12.5651H7.60644V17.8508ZM13.8058 7.36697C16.29 12.1197 12.9011 17.8508 7.60644 17.8508V12.5651C8.97916 12.5651 9.85773 11.0792 9.21369 9.84703L13.8058 7.36697Z" fill="#1263BE"/>
<path d="M11.8988 29.001L15.87 23.1607L11.5922 20.1553L7.62109 25.9956L11.8988 29.001ZM15.87 23.1607L19.8411 29.001L24.1187 25.9956L20.1476 20.1553L15.87 23.1607ZM15.87 23.1607C15.8728 23.1564 15.8747 23.1542 15.8753 23.1536C15.8758 23.153 15.8755 23.1534 15.8745 23.1543C15.8735 23.1551 15.8721 23.1563 15.8705 23.1574C15.8689 23.1585 15.8673 23.1594 15.8659 23.1601C15.8632 23.1615 15.8621 23.1616 15.8631 23.1614C15.8636 23.1613 15.8645 23.1611 15.8657 23.161C15.867 23.1608 15.8684 23.1607 15.87 23.1607C15.8715 23.1607 15.8728 23.1608 15.8741 23.161C15.8753 23.1611 15.8762 23.1613 15.8767 23.1614C15.8777 23.1616 15.8766 23.1615 15.8739 23.1601C15.8726 23.1594 15.871 23.1585 15.8694 23.1574C15.8678 23.1563 15.8663 23.1551 15.8653 23.1543C15.8643 23.1534 15.8641 23.153 15.8646 23.1536C15.8652 23.1542 15.867 23.1564 15.87 23.1607L20.1476 20.1553C18.0801 17.1149 13.6597 17.1149 11.5922 20.1553L15.87 23.1607Z" fill="#1263BE"/>
</g>
</mask>
<g mask="url(#mask0_17149_28651)">
<path d="M16 29C23.1797 29 29 23.1797 29 16C29 8.8203 23.1797 3 16 3C8.8203 3 3 8.8203 3 16C3 23.1797 8.8203 29 16 29Z" fill="#14151A"/>
</g>
<path d="M132.521 11.6562H135.761L135.833 13.6722C136.481 12.2082 137.753 11.3682 139.385 11.3682C141.161 11.3682 142.433 12.3282 143.009 13.9842C143.657 12.2562 144.977 11.3682 146.729 11.3682C149.297 11.3682 150.953 13.0242 150.953 16.1922V24.3762H147.353V17.3922C147.353 15.2802 146.753 14.2242 145.553 14.2242C144.065 14.2242 143.321 15.3282 143.321 17.3922V24.3762H140.129V17.3922C140.129 15.2802 139.553 14.2242 138.329 14.2242C136.865 14.2242 136.121 15.3282 136.121 17.3922V24.3762H132.521V11.6562Z" fill="#14151A"/>
<path d="M117.324 15.5922C117.804 12.8802 119.892 11.3682 123.228 11.3682C127.092 11.3682 129.084 13.2642 129.084 16.8882V20.8962C129.084 21.7362 129.42 21.9282 129.876 21.9282H130.332V24.3762L129.708 24.4002C128.868 24.4242 126.396 24.6642 126.06 22.4322C125.412 23.7522 123.996 24.6642 121.668 24.6642C119.076 24.6642 117.108 23.2722 117.108 21.0162C117.108 18.6642 118.86 17.7762 121.932 17.1762L125.436 16.4562C125.412 14.6082 124.716 13.7202 123.204 13.7202C121.98 13.7202 121.212 14.4162 120.924 15.7602L117.324 15.5922ZM120.804 20.8962C120.804 21.7122 121.476 22.3362 122.796 22.3362C124.356 22.3122 125.484 21.1602 125.484 18.8562V18.6882L123.396 19.0722C121.884 19.3602 120.804 19.6002 120.804 20.8962Z" fill="#14151A"/>
<path d="M111.554 16.5282C111.338 14.9922 110.33 14.1282 109.058 14.1282C107.258 14.1282 106.226 15.5442 106.226 18.0162C106.226 20.4882 107.258 21.9042 109.058 21.9042C110.402 21.9042 111.41 21.0402 111.626 19.3842L115.346 19.5282C115.01 22.6962 112.442 24.6642 109.058 24.6642C105.098 24.6642 102.53 22.0242 102.53 18.0162C102.53 14.0082 105.098 11.3682 109.058 11.3682C112.346 11.3682 114.914 13.2642 115.25 16.3602L111.554 16.5282Z" fill="#14151A"/>
<path d="M81.873 11.6562H85.113L85.185 13.6722C85.833 12.2082 87.105 11.3682 88.737 11.3682C90.513 11.3682 91.785 12.3282 92.361 13.9842C93.009 12.2562 94.329 11.3682 96.081 11.3682C98.649 11.3682 100.305 13.0242 100.305 16.1922V24.3762H96.705V17.3922C96.705 15.2802 96.105 14.2242 94.905 14.2242C93.417 14.2242 92.673 15.3282 92.673 17.3922V24.3762H89.481V17.3922C89.481 15.2802 88.905 14.2242 87.681 14.2242C86.217 14.2242 85.473 15.3282 85.473 17.3922V24.3762H81.873V11.6562Z" fill="#14151A"/>
<path d="M66.676 15.5922C67.156 12.8802 69.244 11.3682 72.58 11.3682C76.444 11.3682 78.436 13.2642 78.436 16.8882V20.8962C78.436 21.7362 78.772 21.9282 79.228 21.9282H79.684V24.3762L79.06 24.4002C78.22 24.4242 75.748 24.6642 75.412 22.4322C74.764 23.7522 73.348 24.6642 71.02 24.6642C68.428 24.6642 66.46 23.2722 66.46 21.0162C66.46 18.6642 68.212 17.7762 71.284 17.1762L74.788 16.4562C74.764 14.6082 74.068 13.7202 72.556 13.7202C71.332 13.7202 70.564 14.4162 70.276 15.7602L66.676 15.5922ZM70.156 20.8962C70.156 21.7122 70.828 22.3362 72.148 22.3362C73.708 22.3122 74.836 21.1602 74.836 18.8562V18.6882L72.748 19.0722C71.236 19.3602 70.156 19.6002 70.156 20.8962Z" fill="#14151A"/>
<path d="M51.6709 18.0162C51.6709 14.0082 54.2389 11.3682 58.1989 11.3682C61.7269 11.3682 64.4389 13.8162 64.4149 18.2802V18.9522H55.4389C55.5349 20.8482 56.5669 22.0002 58.1989 22.0002C59.2309 22.0002 60.1909 21.3762 60.5989 20.4162L64.2469 20.6562C63.4789 23.1282 61.1029 24.6642 58.1989 24.6642C54.2389 24.6642 51.6709 22.0242 51.6709 18.0162ZM55.4629 16.7682H60.7669C60.5749 14.8482 59.4709 14.0322 58.1989 14.0322C56.6629 14.0322 55.6549 15.0642 55.4629 16.7682Z" fill="#14151A"/>
<path d="M51.872 7.33594V10.4079H46.784V24.3759H43.112V10.4079H38V7.33594H51.872Z" fill="#14151A"/>
<path d="M153.758 27.94V11.62H157.19L157.262 13.516C157.958 12.1 159.302 11.332 161.054 11.332C164.654 11.332 166.502 14.236 166.502 17.98C166.502 21.724 164.654 24.628 161.054 24.628C159.398 24.628 158.102 23.884 157.358 22.516V27.94H153.758ZM157.118 17.98C157.118 20.092 158.03 21.892 159.95 21.892C161.894 21.892 162.782 20.092 162.782 17.98C162.782 15.892 161.846 14.068 159.95 14.068C158.03 14.068 157.118 15.916 157.118 17.98Z" fill="#14151A"/>
</svg>
