<svg xmlns="http://www.w3.org/2000/svg" width="120" height="120" fill="none"><path fill="#F1F3F9" stroke="#CDCDCD" stroke-miterlimit="10" d="M95.2 51.425v28.307c0 5.882-4.783 10.665-10.743 10.665H34.743c-5.881 0-10.665-4.705-10.743-10.586V51.268c0-.157 0-.313.078-.47.079-.236.157-.392.236-.628l13.33-25.484c.47-1.02 1.49-1.569 2.588-1.569H78.89c1.098 0 2.039.55 2.588 1.569l13.33 25.484c.078.157.157.392.235.628.157.157.157.392.157.627Z"/><path fill="#fff" stroke="#CDCDCD" stroke-miterlimit="10" d="M69.799 51.66H49.646c-.862 0-1.568-.627-1.568-1.568V22.568c0-.862.627-1.568 1.568-1.568H69.72c.863 0 1.569.627 1.569 1.568v27.524c0 .862-.628 1.568-1.49 1.568Z"/><path fill="#fff" stroke="#CDCDCD" stroke-miterlimit="10" d="M76.459 58.169H42.976c-1.098 0-1.96-.941-1.96-1.96v-26.74c0-1.098.94-1.96 1.96-1.96h33.483c1.098 0 1.96.94 1.96 1.96v26.74c-.078 1.097-.862 1.96-1.96 1.96Z"/><path fill="#fff" stroke="#CDCDCD" stroke-miterlimit="10" d="M80.3 65.775H39.211c-1.176 0-2.195-1.02-2.195-2.117V37.31c0-1.176 1.019-2.117 2.195-2.117h41.09c1.175 0 2.195 1.02 2.195 2.117v26.27c-.079 1.254-1.02 2.195-2.196 2.195Z"/><path fill="#fff" stroke="#CDCDCD" stroke-miterlimit="10" d="M84.456 73.146h-49.4c-1.334 0-2.353-1.098-2.353-2.274V44.917c0-1.334 1.098-2.274 2.352-2.274h49.401c1.334 0 2.353 1.097 2.353 2.274v25.876c-.079 1.333-1.02 2.353-2.353 2.353Z"/><path fill="#E6ECF5" d="M69.638 52.915H51.054c-.47 0-.94-.392-.94-.941 0-.47.391-.941.94-.941h18.584c.47 0 .941.392.941.94 0 .55-.392.942-.94.942Zm-5.408 5.489H40.704a.536.536 0 0 1-.549-.55c0-.313.236-.548.55-.548H64.15c.314 0 .549.235.549.549.157.157-.079.549-.47.549Zm15.445 0h-11.84a.536.536 0 0 1-.55-.55c0-.313.235-.548.55-.548h11.761c.314 0 .55.235.55.549.156.157-.08.549-.471.549Z"/><g filter="url(#a)"><path fill="#fff" d="M91.107 52.844v26.838c0 3.817-3.053 6.87-6.94 6.87H35.03c-3.817 0-6.94-3.053-6.94-6.87V52.705c0-.139 0-.277.07-.416h13.47a4.28 4.28 0 0 1 4.303 4.303c0 1.18.486 2.29 1.25 3.053.833.833 1.804 1.25 3.053 1.25h19.578a4.28 4.28 0 0 0 4.303-4.303c0-1.18.486-2.29 1.25-3.054.832-.833 1.804-1.25 2.984-1.25h12.617c.14.14.14.348.14.556Z"/></g><g filter="url(#b)"><path fill="url(#c)" d="M95.2 51.425v31.209c0 4.312-3.45 7.763-7.841 7.763H31.84c-4.312 0-7.841-3.45-7.841-7.764V51.269c0-.157 0-.314.078-.47h17.879a4.836 4.836 0 0 1 4.861 4.861c0 1.333.55 2.588 1.412 3.45.94.941 2.039 1.412 3.45 1.412h15.918a4.836 4.836 0 0 0 4.862-4.862c0-1.333.549-2.588 1.411-3.45.941-.941 2.04-1.412 3.372-1.412h17.8c.157.157.157.392.157.628Z"/></g><path stroke="#CDCDCD" d="M24.078 50.297h-.309l-.138.277a1.441 1.441 0 0 0-.131.673v31.386c0 4.596 3.76 8.264 8.341 8.264H87.36c4.664 0 8.341-3.671 8.341-8.264V51.41c0-.108 0-.265-.028-.418a1.015 1.015 0 0 0-.275-.548l-.147-.147H77.243c-1.47 0-2.693.527-3.725 1.558a5.425 5.425 0 0 0-1.558 3.804 4.336 4.336 0 0 1-4.362 4.362H51.68c-1.279 0-2.25-.418-3.096-1.265a4.425 4.425 0 0 1-1.266-3.097 5.336 5.336 0 0 0-5.361-5.362H24.078Z"/><path fill="url(#d)" d="M74.435 87.54c-.314 1.332-.784 2.744-1.333 3.92-1.49 2.901-3.842 5.175-6.744 6.665-2.98 1.49-6.508 2.117-10.037 1.333-8.39-1.803-13.722-9.88-11.997-18.192 1.725-8.312 9.802-13.722 18.114-11.919 2.98.627 5.567 2.117 7.763 4.156 3.764 3.686 5.253 8.94 4.234 14.036Z"/><path stroke="#fff" stroke-linecap="round" stroke-linejoin="round" stroke-width="3.077" d="m54.617 85.385 2.885 2.692 6.538-7.5"/><defs><linearGradient id="c" x1="59.6" x2="59.6" y1="50.797" y2="90.397" gradientUnits="userSpaceOnUse"><stop stop-color="#FEFEFE"/><stop offset="1" stop-color="#F3F3F3"/></linearGradient><linearGradient id="d" x1="59.374" x2="59.374" y1="69" y2="99.798" gradientUnits="userSpaceOnUse"><stop stop-color="#939DA5"/><stop offset="1" stop-color="#676F76"/></linearGradient><filter id="a" width="89.016" height="60.264" x="15.09" y="36.289" color-interpolation-filters="sRGB" filterUnits="userSpaceOnUse"><feFlood flood-opacity="0" result="BackgroundImageFix"/><feColorMatrix in="SourceAlpha" result="hardAlpha" values="0 0 0 0 0 0 0 0 0 0 0 0 0 0 0 0 0 0 127 0"/><feOffset dy="-3"/><feGaussianBlur stdDeviation="6.5"/><feColorMatrix values="0 0 0 0 0.397708 0 0 0 0 0.47749 0 0 0 0 0.575 0 0 0 0.27 0"/><feBlend in2="BackgroundImageFix" result="effect1_dropShadow_13570_103500"/><feBlend in="SourceGraphic" in2="effect1_dropShadow_13570_103500" result="shape"/></filter><filter id="b" width="73.199" height="43.138" x="23" y="48.259" color-interpolation-filters="sRGB" filterUnits="userSpaceOnUse"><feFlood flood-opacity="0" result="BackgroundImageFix"/><feBlend in="SourceGraphic" in2="BackgroundImageFix" result="shape"/><feColorMatrix in="SourceAlpha" result="hardAlpha" values="0 0 0 0 0 0 0 0 0 0 0 0 0 0 0 0 0 0 127 0"/><feOffset dy="-5.385"/><feGaussianBlur stdDeviation=".769"/><feComposite in2="hardAlpha" k2="-1" k3="1" operator="arithmetic"/><feColorMatrix values="0 0 0 0 0 0 0 0 0 0 0 0 0 0 0 0 0 0 0.02 0"/><feBlend in2="shape" result="effect1_innerShadow_13570_103500"/></filter></defs></svg>